<?xml version="1.0" encoding="UTF-8"?>
<svg width="108px" height="28px" viewBox="0 0 108 28" version="1.1" xmlns="http://www.w3.org/2000/svg" xmlns:xlink="http://www.w3.org/1999/xlink">
    <!-- Generator: Sketch 49 (51002) - http://www.bohemiancoding.com/sketch -->
    <title>Group Copy</title>
    <desc>Created with Sketch.</desc>
    <defs></defs>
    <g id="Page-1" stroke="none" stroke-width="1" fill="none" fill-rule="evenodd">
        <g id="Group-Copy">
            <path d="M10.7258687,16.713418 L7.59557224,16.713418 L6.0611132,22.4494754 L0,22.4494754 L0.982053785,18.7388183 L3.00753972,18.7388183 L6.99713322,3.7106571 L4.98699188,3.7106571 L5.96904566,0 L12.0301589,0 L8.57762603,12.9872998 L11.7232671,12.9872998 C12.6132578,12.9872998 13.1707723,12.5698551 13.3958274,11.7349531 L14.9916648,5.78244064 L19.0272921,5.78244064 L17.2166304,12.5698509 C17.0120349,13.3841381 16.5670462,14.141723 15.8816511,14.8426284 C16.1885444,15.5538412 16.2294629,16.3165798 16.0044078,17.1308669 L14.5927055,22.4494754 L10.5570782,22.4494754 L11.7386116,17.9812258 C11.953437,17.1360164 11.6158594,16.713418 10.7258687,16.713418 Z M19.0463876,22.4494754 C18.2586947,22.4494754 17.662819,22.1917935 17.2587428,21.6764219 C16.8546666,21.1610502 16.7446981,20.5323063 16.9288341,19.7901712 L19.9977522,8.2252899 C20.1818882,7.4934622 20.621762,6.86729507 21.3173869,6.34676974 C22.0130119,5.82624441 22.7546596,5.56598564 23.5423526,5.56598564 L30.4474182,5.56598564 C31.2146516,5.56598564 31.8079698,5.82624441 32.2273907,6.34676974 C32.6468116,6.86729507 32.7593375,7.4934622 32.5649717,8.2252899 L29.4960536,19.7901712 C29.3016878,20.5323063 28.8566992,21.1610502 28.1610743,21.6764219 C27.4654494,22.1917935 26.7340312,22.4494754 25.9667978,22.4494754 L19.0463876,22.4494754 Z M21.4708329,18.7388183 L25.5064601,18.7388183 C25.6599068,18.7388183 25.7570882,18.6666674 25.7980073,18.5223633 L28.1917634,9.49309774 C28.2224528,9.34879368 28.1661898,9.27664274 28.0229729,9.27664274 L23.9873457,9.27664274 C23.8441288,9.27664274 23.7469473,9.34879368 23.6957985,9.49309774 L21.3020424,18.5223633 C21.2611232,18.6666674 21.3173862,18.7388183 21.4708329,18.7388183 Z M33.9497357,0 L40.0108489,0 L38.5224237,5.56598564 L44.2306113,5.56598564 C44.9978447,5.56598564 45.5911629,5.82624441 46.0105838,6.34676974 C46.4300047,6.86729507 46.5425306,7.4934622 46.3481648,8.2252899 L43.2792467,19.7901712 C43.0848809,20.5323063 42.6398922,21.1610502 41.9442673,21.6764219 C41.2486424,22.1917935 40.5172243,22.4494754 39.7499909,22.4494754 L32.8295806,22.4494754 C32.0418877,22.4494754 31.4460121,22.1917935 31.0419359,21.6764219 C30.6378596,21.1610502 30.5278912,20.5323063 30.7120272,19.7901712 L34.9778233,3.7106571 L32.9676819,3.7106571 L33.9497357,0 Z M35.2540259,18.7388183 L39.2896532,18.7388183 C39.4430999,18.7388183 39.5402813,18.6666674 39.5812004,18.5223633 L41.9749565,9.49309774 C42.0056458,9.34879368 41.9493829,9.27664274 41.806166,9.27664274 L37.7705387,9.27664274 C37.6273218,9.27664274 37.5301404,9.34879368 37.4789915,9.49309774 L35.0852354,18.5223633 C35.0443163,18.6666674 35.1005792,18.7388183 35.2540259,18.7388183 Z M48.1165436,28 L44.5565986,28 L45.5386524,24.2893429 L48.5308475,24.2893429 C48.6740644,24.2893429 48.7814755,24.217192 48.8530839,24.0728879 L49.7584147,22.4185533 C49.0832494,22.3257864 48.5155052,22.032029 48.0551652,21.5372722 C47.5948252,21.0425155 47.3646586,20.4601543 47.3646586,19.7901712 L47.3646586,5.56598564 L51.4002859,5.56598564 L51.4002859,18.5223633 C51.4002859,18.6666674 51.4770081,18.7388183 51.6304548,18.7388183 L51.7071777,18.7388183 L58.7196555,5.56598564 L62.8933841,5.56598564 L52.3669951,25.3406957 C51.9680338,26.0725234 51.3516989,26.6986906 50.517972,27.2192159 C49.684245,27.7397412 48.8837769,28 48.1165436,28 Z M66.0120868,11.7504141 C65.9916273,11.8225662 65.9967421,11.8689489 66.0274314,11.8895638 C66.2729461,12.2090942 67.0350531,12.4564688 68.3137754,12.6316952 C69.5924977,12.8069215 70.4569009,13.1728299 70.9070112,13.7294313 C71.3264321,14.2654177 71.438958,14.8941617 71.2445922,15.6156819 L70.1397817,19.7901712 C69.9351861,20.5323063 69.4850826,21.1610502 68.7894577,21.6764219 C68.0938328,22.1917935 67.3624146,22.4494754 66.5951813,22.4494754 L59.3218454,22.4494754 L60.7949261,16.8834898 L64.845898,16.8834898 L64.4009049,18.5223633 C64.3599857,18.6666674 64.4162487,18.7388183 64.5696954,18.7388183 L66.1501882,18.7388183 C66.2934051,18.7388183 66.3854717,18.6666674 66.4263908,18.5223633 L66.8713839,16.8834898 C66.8816137,16.8216452 66.8713841,16.7701088 66.8406947,16.7288791 C66.5644907,16.3887338 65.7921541,16.1387823 64.5236616,15.9790171 C63.2551691,15.8192519 62.4009954,15.4559204 61.961115,14.8890116 C61.5416941,14.3839474 61.4291682,13.7603571 61.623534,13.018222 L62.897135,8.2252899 C63.0915008,7.4934622 63.533932,6.86729507 64.2244421,6.34676974 C64.9149521,5.82624441 65.6540425,5.56598564 66.4417354,5.56598564 L73.7150712,5.56598564 L72.226646,11.1319713 L68.1910187,11.1319713 L68.6206672,9.49309774 C68.6513565,9.34879368 68.6002084,9.27664274 68.4672213,9.27664274 L66.8867285,9.27664274 C66.7332818,9.27664274 66.6412152,9.34879368 66.6105259,9.49309774 L66.0120868,11.7504141 Z M73.4272749,22.4494754 C72.639582,22.4494754 72.0437064,22.1917935 71.6396301,21.6764219 C71.2355539,21.1610502 71.1255854,20.5323063 71.3097214,19.7901712 L74.3786395,8.2252899 C74.5627755,7.4934622 75.0026494,6.86729507 75.6982743,6.34676974 C76.3938992,5.82624441 77.135547,5.56598564 77.9232399,5.56598564 L84.8283056,5.56598564 C85.5955389,5.56598564 86.1888571,5.82624441 86.608278,6.34676974 C87.0276989,6.86729507 87.1402248,7.4934622 86.945859,8.2252899 L83.876941,19.7901712 C83.6825752,20.5323063 83.2375865,21.1610502 82.5419616,21.6764219 C81.8463367,22.1917935 81.1149185,22.4494754 80.3476852,22.4494754 L73.4272749,22.4494754 Z M75.8517202,18.7388183 L79.8873475,18.7388183 C80.0407941,18.7388183 80.1379756,18.6666674 80.1788947,18.5223633 L82.5726508,9.49309774 C82.6033401,9.34879368 82.5470772,9.27664274 82.4038603,9.27664274 L78.368233,9.27664274 C78.2250161,9.27664274 78.1278347,9.34879368 78.0766858,9.49309774 L75.6829297,18.5223633 C75.6420106,18.6666674 75.6982735,18.7388183 75.8517202,18.7388183 Z M92.7652097,5.56598564 L94.7906956,5.56598564 L93.7932972,9.27664274 L91.7831559,9.27664274 L88.2692447,22.4494754 L84.2336174,22.4494754 L89.4968119,2.65930425 C89.6809479,1.92747655 90.1208218,1.30130943 90.8164467,0.780784097 C91.5120716,0.260258763 92.2537194,0 93.0414123,0 L96.2637763,0 L95.2817225,3.7106571 L93.4864054,3.7106571 C93.3431885,3.7106571 93.2460071,3.78280804 93.1948582,3.92711209 L92.7652097,5.56598564 Z M98.2623239,18.7388183 L101.315897,18.7388183 L100.318499,22.4494754 L96.2828718,22.4494754 C95.0655282,22.4494754 94.1371898,22.0474916 93.4978286,21.2435119 C92.8584675,20.4395321 92.6871213,19.4654944 92.9837848,18.3213694 L97.84802,0 L101.898992,0 L100.410567,5.56598564 L104.461538,5.56598564 L103.46414,9.27664274 L99.4285128,9.27664274 L97.249581,17.4710105 C97.0245259,18.3162199 97.3621035,18.7388183 98.2623239,18.7388183 Z" id="kobysoft." fill="#4F5467"></path>
            <polygon id="Path" fill="#00C6DE" points="103.050657 19 107.384615 19 106.317542 22.2307692 102 22.2307692"></polygon>
        </g>
    </g>
</svg>